<?xml version="1.0" encoding="UTF-8" standalone="no"?>
<!DOCTYPE svg PUBLIC "-//W3C//DTD SVG 1.1//EN"
 "http://www.w3.org/Graphics/SVG/1.1/DTD/svg11.dtd">
<!-- Generated by graphviz version 2.40.1 (20161225.0304)
 -->
<!-- Title: matrix Pages: 1 -->
<svg width="921pt" height="66pt"
 viewBox="0.00 0.00 921.01 66.40" xmlns="http://www.w3.org/2000/svg" xmlns:xlink="http://www.w3.org/1999/xlink">
<g id="graph0" class="graph" transform="scale(1 1) rotate(0) translate(4 62.4)">
<title>matrix</title>
<polygon fill="#ffffff" stroke="transparent" points="-4,4 -4,-62.4 917.0124,-62.4 917.0124,4 -4,4"/>
<!-- 1 -->
<g id="node1" class="node">
<title>1</title>
<polygon fill="none" stroke="#000000" points="175.271,-58.6014 121.271,-58.6014 121.271,.2014 175.271,.2014 175.271,-58.6014"/>
<text text-anchor="middle" x="148.271" y="-41.8" font-family="Times,serif" font-size="14.00" fill="#000000">(1) </text>
<text text-anchor="middle" x="148.271" y="-25" font-family="Times,serif" font-size="14.00" fill="#000000"> i = k </text>
<text text-anchor="middle" x="148.271" y="-8.2" font-family="Times,serif" font-size="14.00" fill="#000000"> j = k</text>
</g>
<!-- 2 -->
<g id="node2" class="node">
<title>2</title>
<polygon fill="none" stroke="#000000" points="327.4093,-58.6014 248.9851,-58.6014 248.9851,.2014 327.4093,.2014 327.4093,-58.6014"/>
<text text-anchor="middle" x="288.1972" y="-41.8" font-family="Times,serif" font-size="14.00" fill="#000000">(2) </text>
<text text-anchor="middle" x="288.1972" y="-25" font-family="Times,serif" font-size="14.00" fill="#000000"> i = k </text>
<text text-anchor="middle" x="288.1972" y="-8.2" font-family="Times,serif" font-size="14.00" fill="#000000"> j = col&#45;k&#45;1</text>
</g>
<!-- 1&#45;&gt;2 -->
<g id="edge2" class="edge">
<title>1&#45;&gt;2</title>
<path fill="none" stroke="#000000" d="M175.5824,-29.2C193.4898,-29.2 217.4256,-29.2 238.6247,-29.2"/>
<polygon fill="#000000" stroke="#000000" points="238.7733,-32.7001 248.7733,-29.2 238.7733,-25.7001 238.7733,-32.7001"/>
<text text-anchor="middle" x="212.0562" y="-33.4" font-family="Times,serif" font-size="14.00" fill="#000000">j = j+1</text>
</g>
<!-- 3 -->
<g id="node3" class="node">
<title>3</title>
<polygon fill="none" stroke="#000000" points="487.9339,-58.6014 401.1865,-58.6014 401.1865,.2014 487.9339,.2014 487.9339,-58.6014"/>
<text text-anchor="middle" x="444.5602" y="-41.8" font-family="Times,serif" font-size="14.00" fill="#000000">(3) </text>
<text text-anchor="middle" x="444.5602" y="-25" font-family="Times,serif" font-size="14.00" fill="#000000"> i = row&#45;k&#45;1 </text>
<text text-anchor="middle" x="444.5602" y="-8.2" font-family="Times,serif" font-size="14.00" fill="#000000"> j = col&#45;k&#45;1</text>
</g>
<!-- 2&#45;&gt;3 -->
<g id="edge3" class="edge">
<title>2&#45;&gt;3</title>
<path fill="none" stroke="#000000" d="M327.6542,-29.2C346.7708,-29.2 370.02,-29.2 390.7348,-29.2"/>
<polygon fill="#000000" stroke="#000000" points="390.9849,-32.7001 400.9849,-29.2 390.9849,-25.7001 390.9849,-32.7001"/>
<text text-anchor="middle" x="364.3382" y="-33.4" font-family="Times,serif" font-size="14.00" fill="#000000">i = i+1</text>
</g>
<!-- 4 -->
<g id="node4" class="node">
<title>4</title>
<polygon fill="none" stroke="#000000" points="645.1439,-58.6014 558.3965,-58.6014 558.3965,.2014 645.1439,.2014 645.1439,-58.6014"/>
<text text-anchor="middle" x="601.7702" y="-41.8" font-family="Times,serif" font-size="14.00" fill="#000000">(4) </text>
<text text-anchor="middle" x="601.7702" y="-25" font-family="Times,serif" font-size="14.00" fill="#000000"> i = row&#45;k&#45;1 </text>
<text text-anchor="middle" x="601.7702" y="-8.2" font-family="Times,serif" font-size="14.00" fill="#000000"> j = k</text>
</g>
<!-- 3&#45;&gt;4 -->
<g id="edge4" class="edge">
<title>3&#45;&gt;4</title>
<path fill="none" stroke="#000000" d="M487.9347,-29.2C506.5867,-29.2 528.5757,-29.2 548.2297,-29.2"/>
<polygon fill="#000000" stroke="#000000" points="548.2647,-32.7001 558.2646,-29.2 548.2646,-25.7001 548.2647,-32.7001"/>
<text text-anchor="middle" x="523.1652" y="-33.4" font-family="Times,serif" font-size="14.00" fill="#000000">j = j&#45;1</text>
</g>
<!-- 5 -->
<g id="node5" class="node">
<title>5</title>
<polygon fill="none" stroke="#000000" points="779.0639,-58.6014 715.7027,-58.6014 715.7027,.2014 779.0639,.2014 779.0639,-58.6014"/>
<text text-anchor="middle" x="747.3833" y="-41.8" font-family="Times,serif" font-size="14.00" fill="#000000">(5) </text>
<text text-anchor="middle" x="747.3833" y="-25" font-family="Times,serif" font-size="14.00" fill="#000000"> i = k+1 </text>
<text text-anchor="middle" x="747.3833" y="-8.2" font-family="Times,serif" font-size="14.00" fill="#000000"> j = k</text>
</g>
<!-- 4&#45;&gt;5 -->
<g id="edge5" class="edge">
<title>4&#45;&gt;5</title>
<path fill="none" stroke="#000000" d="M645.4589,-29.2C664.4019,-29.2 686.4934,-29.2 705.2574,-29.2"/>
<polygon fill="#000000" stroke="#000000" points="705.2984,-32.7001 715.2984,-29.2 705.2983,-25.7001 705.2984,-32.7001"/>
<text text-anchor="middle" x="680.3752" y="-33.4" font-family="Times,serif" font-size="14.00" fill="#000000">i = i&#45;1</text>
</g>
<!-- 6 -->
<g id="node7" class="node">
<title>6</title>
<polygon fill="none" stroke="#000000" points="913.0124,-47.2 859.0124,-47.2 859.0124,-11.2 913.0124,-11.2 913.0124,-47.2"/>
<text text-anchor="middle" x="886.0124" y="-25" font-family="Times,serif" font-size="14.00" fill="#000000">下一圈</text>
</g>
<!-- 5&#45;&gt;6 -->
<g id="edge6" class="edge">
<title>5&#45;&gt;6</title>
<path fill="none" stroke="#000000" d="M779.1876,-29.2C799.7965,-29.2 826.7363,-29.2 848.4058,-29.2"/>
<polygon fill="#000000" stroke="#000000" points="848.5694,-32.7001 858.5694,-29.2 848.5694,-25.7001 848.5694,-32.7001"/>
<text text-anchor="middle" x="819.1178" y="-33.4" font-family="Times,serif" font-size="14.00" fill="#000000">k = k+1</text>
</g>
<!-- 0 -->
<g id="node6" class="node">
<title>0</title>
<polygon fill="none" stroke="#000000" points="84.4069,-49.8019 -.1359,-49.8019 -.1359,-8.5981 84.4069,-8.5981 84.4069,-49.8019"/>
<text text-anchor="middle" x="42.1355" y="-33.4" font-family="Times,serif" font-size="14.00" fill="#000000">上一圈 </text>
<text text-anchor="middle" x="42.1355" y="-16.6" font-family="Times,serif" font-size="14.00" fill="#000000"> k = (k&#45;1)+1</text>
</g>
<!-- 0&#45;&gt;1 -->
<g id="edge1" class="edge">
<title>0&#45;&gt;1</title>
<path fill="none" stroke="#0000ff" d="M84.388,-29.2C93.183,-29.2 102.3919,-29.2 110.992,-29.2"/>
<polygon fill="#0000ff" stroke="#0000ff" points="111.1118,-32.7001 121.1118,-29.2 111.1118,-25.7001 111.1118,-32.7001"/>
</g>
</g>
</svg>
